<svg width="568" height="97" viewBox="0 0 568 97" fill="none" xmlns="http://www.w3.org/2000/svg">
<path d="M123.174 0L92.7207 97H85.5879V0H123.174ZM220.445 97H193.453V60.5576H205.066L220.445 97ZM263.154 97H239.649V96.0674L222.03 55.9502C224.305 54.7816 226.328 53.3652 228.1 51.6973C230.785 49.2102 232.845 46.1237 234.277 42.4375C235.755 38.7067 236.493 34.3093 236.493 29.2461C236.493 22.895 235.284 17.543 232.867 13.1904C230.495 8.83805 227.026 5.55172 222.46 3.33105C217.894 1.11038 212.366 2.52319e-05 205.875 0H245.164L263.154 97ZM306.586 97H280.742L293.777 34.5186L306.586 97ZM374.584 61.5576V97H324.241L342.164 0H347.972L374.584 61.5576ZM448.572 0C447.316 0.366201 446.101 0.800178 444.928 1.30762C440.714 3.13077 437.127 5.82058 434.168 9.37793C431.254 12.9354 429.012 17.2939 427.443 22.4521C425.874 27.6104 425.09 33.5023 425.09 40.1279V57.0039C425.09 63.6295 425.829 69.5215 427.309 74.6797C428.833 79.7935 431.03 84.1072 433.899 87.6201C436.813 91.1328 440.355 93.8229 444.523 95.6904C445.696 96.2032 446.886 96.6369 448.115 97H392.684V61.5576L419.296 0H448.572ZM500.838 97H470.307C472.492 96.3777 474.516 95.5594 476.398 94.5566C481.285 91.9775 485.029 88.2201 487.629 83.2842C490.274 78.3038 491.753 72.2335 492.066 65.0742H474.112C473.888 69.8765 473.238 73.6342 472.162 76.3467C471.131 79.0147 469.539 80.9049 467.388 82.0166C465.236 83.0838 462.344 83.6172 458.713 83.6172C455.709 83.6172 453.199 83.0837 451.182 82.0166C449.164 80.905 447.55 79.2598 446.34 77.0811C445.174 74.8577 444.322 72.0782 443.784 68.7432C443.246 65.4082 442.978 61.495 442.978 57.0039V39.9941C442.978 35.3252 443.291 31.3233 443.919 27.9883C444.547 24.6533 445.511 21.9186 446.811 19.7842C448.111 17.6053 449.791 16.0042 451.854 14.9814C453.916 13.9587 456.359 13.4473 459.184 13.4473C462.815 13.4473 465.684 14.0474 467.791 15.248C469.898 16.4486 471.444 18.4497 472.431 21.251C473.417 24.008 474 27.7435 474.18 32.457H492.134C491.685 25.2091 490.184 19.0726 487.629 14.0479C485.074 8.9785 481.442 5.13142 476.734 2.50781C474.861 1.46392 472.807 0.628528 470.572 0H500.838V97ZM546.777 97H518.681V67.7891L526.876 57.6367L546.777 97ZM150.974 97H111.431L117.18 75.748H145.225L150.974 97ZM567.735 96.7285L538.285 42.6943L566.95 0H567.735V96.7285ZM273.364 65.4072L263.021 0H286.246L273.364 65.4072ZM314.066 65.249L301.216 0H324.375L314.066 65.249ZM141.206 60.8916H121.198L131.202 23.9072L141.206 60.8916ZM205.875 14.9229C208.874 14.9229 211.292 15.5445 213.127 16.7881C215.007 18.0317 216.372 19.8308 217.223 22.1846C218.118 24.494 218.565 27.2697 218.565 30.5117C218.565 33.4873 218.073 36.13 217.088 38.4395C216.148 40.7046 214.693 42.4815 212.724 43.7695C210.799 45.0575 208.381 45.7012 205.472 45.7012H193.453V14.9229H205.875ZM383.634 44.8359L367.612 0H399.588L383.634 44.8359ZM525.272 32.8438L518.681 43.2666V0H545.312L525.272 32.8438ZM175.458 97H169.75L139.163 0H175.458V97Z" fill="#121212"/>
<path d="M6.24411 0H22.2908L43.5745 69.2857L64.6568 0H79.2264L50.2215 97H36.7933L6.24411 0ZM0 0H15.1067L17.4567 62.8901V97H0V0ZM71.8409 0H87.0147V97H69.5581V62.8901L71.8409 0Z" fill="#121212"/>
</svg>
